<svg width="53" height="53" viewBox="0 0 53 53" fill="none" xmlns="http://www.w3.org/2000/svg">
<path d="M26.528 52.864C32.36 52.864 37.616 51.136 41.864 48.112L45.464 51.352C46.256 52.144 47.264 52.648 48.56 52.648C50.864 52.648 52.736 50.704 52.736 48.4C52.736 46.888 52.088 45.808 51.08 44.944L47.84 42.28C51.08 37.888 52.952 32.488 52.952 26.8V26.656C52.952 12.472 42.152 0.735999 26.672 0.735999C11.192 0.735999 0.248 12.616 0.248 26.8V26.944C0.248 41.128 11.048 52.864 26.528 52.864ZM29.12 37.024L35.384 42.352C32.936 43.792 29.984 44.656 26.672 44.656C16.664 44.656 9.536 36.592 9.536 26.8V26.656C9.536 16.864 16.52 8.872 26.528 8.872C36.536 8.872 43.664 17.008 43.664 26.8V26.944C43.664 30.544 42.8 33.784 41.216 36.52L34.736 30.616C33.728 29.752 32.936 29.32 31.64 29.32C29.336 29.32 27.464 31.264 27.464 33.568C27.464 35.08 28.112 36.16 29.12 37.024Z" fill="url(#paint0_linear_1_199)"/>
<defs>
<linearGradient id="paint0_linear_1_199" x1="-4" y1="-13" x2="75.4306" y2="51.5517" gradientUnits="userSpaceOnUse">
<stop stop-color="#0467FF"/>
<stop offset="1" stop-color="#59E5FF"/>
</linearGradient>
</defs>
</svg>
